<svg xmlns="http://www.w3.org/2000/svg" viewBox="0 0 579.39 110.75"><g data-name="Слой 2"><path d="M60.79 16.93c-24.11 0-35.21 12.57-35.21 27.19 0 28.49 41.93 22.64 41.93 45.73 0 9.65-7.3 20-24.4 20-20.6 0-23.67-14.9-26-30.54 0 0-14.46-1.38-16.81 11.13C-2.12 104.58 11.4 107 11.4 107a160.14 160.14 0 0031.86 3.8c28.64 0 38.58-13.3 38.58-28.06 0-31-42.68-25.13-42.68-46.91 0-9.4 7.89-17.83 22.22-17.83 15.78 0 21.48 10.37 24.11 28.2l.73-.15 5-28.35c-10.23 2.2-18.56-.73-30.4-.73m52.15 91.89c-8 0-11.53-4.89-11.53-11.62a16.79 16.79 0 018.73-14.84l16.51 21.13a21.64 21.64 0 01-13.71 5.33m11.61-54.24c4.72 0 7.25 2.71 7.25 7.51 0 7.6-6.37 12.49-12.14 15.38l-1.75-2.27C115 71.61 114 68.73 114 65.67c0-5.76 4-11.09 10.57-11.09m4.86 30c6.46 0 9.41 4.18 4.58 11.28L119.92 77.9c7.25-2.36 19.83-5.06 19.83-14 0-6.2-6.11-10-15.28-10-11.53 0-20.09 6.29-20.09 15.37a18.27 18.27 0 004.19 11l1.22 1.57c-9.08 3.06-18.6 7.16-18.6 16 0 8.13 8.3 12.14 18.25 12.14a27.81 27.81 0 0017.73-5.94L131 109h17l.17-.61c-3.75 0-5.33-1.22-8.56-5.41l-5.33-6.64c1.58-2.27.85-.7 2.33-3.76 3-5.59 4-8 11.88-8l.17-.61h-19.07l-.18.61zM379 47.43s3-11.09 3.53-13.79c.51-2-.11-13.74-14.79-12.14a13.61 13.61 0 00-12.13 14.94l-.1.28c6.61 0 8.79 2.1 8.1 7.45l-1.2 5.07h-9.93L352 51h10.1l-9.64 41.5c-2.78 11.83 2.77 17.82 12.71 17.82 10.23 0 18-6.43 23.82-12.13l-.58-.58c-4 4-9.21 8.18-14.76 8.18-5.26 0-7-3.94-5.41-11.1L378.32 51h17.83l.44-1.75h-17.83l.22-1.81zM424.59 0a13.62 13.62 0 00-12.14 14.79l-.08.26c7.6 0 9.35 2.77 7.6 10.08l-16.22 70.58c-2.05 8.77 1.16 14.61 9.5 14.61 5.84 0 12.42-2.92 18.7-6.86l.15-1c-2.64 1.61-6.58 3.65-9.5 3.65-3.07 0-4.1-2.33-3.22-6.72l20-87.21S441.31 0 424.59 0m40.09 77.3c2.92-14 11-28.64 21.33-28.64 5.41 0 7.46 3.94 7.46 9.64 0 15-14 19.73-28.79 19m21.63-29.66c-20.61 0-39.9 16.21-39.9 37.7 0 13.73 8 25.13 25.72 25.13 15.64 0 25.43-9.21 31.42-16.22l-.73-.59c-5.26 6.29-13.59 13.45-23.67 13.45-10.82 0-15.49-8.18-15.49-19.44a54.78 54.78 0 01.87-9.35c14.76 1.32 44 1.17 44-15.2 0-9.06-9.21-15.48-22.21-15.48M228.4 85.48l-16.06-66.93C210 8.67 205 3.34 196.43 3.51a15.62 15.62 0 00-15.31 15.93h.27v.15c14.47 0 16.22 7.74 11.7 23.52l-5.27 17.1C176.23 101.7 171 108 155.48 108l-.29.87h37.12l.14-.87c-15.2 0-15.34-6.43-3.36-47.79l8.18-27.33 18.27 73.36h.73l49.1-76.72-11.25 62.7C252.36 102.29 248.86 108 238 108l-.14.87H282l.29-.87c-11 0-12.13-5-10.08-16.52l10.08-55.09c1.9-10.23 4.82-16.8 16.51-16.8l.3-1h-28.18zm91.71 14.18l11.05-43.21s1.2-12.15-14.8-12.15a13.62 13.62 0 00-12.13 14.94l-.09.28c7.6 0 9.35 2.78 7.6 10.09L304.47 96c-2.05 8.77 1.17 14.62 9.5 14.62 5.84 0 12.42-2.93 18.7-6.87l.15-1c-2.63 1.61-6.58 3.66-9.5 3.66s-4.09-2.34-3.21-6.72M569.89 48.1c-8.68 0-16.42 10.07-21.42 20.29L551.08 57c.29-7.28-7.61-12.2-14.85-11.44a13.61 13.61 0 00-12.13 14.98l-.09.27c7.59 0 9.17 2.52 7.42 9.83l-8.88 38.68h16.51l3.3-14.32 5.31-23c3.51-7.31 8.18-13.74 13.3-15.64 0 .58-.15 1.17-.15 1.75a9.29 9.29 0 1018.56-.14c0-5.12-3.65-9.79-9.5-9.79" fill="#fff" data-name="Слой 1"/></g></svg>