<svg data-name="Слой 1" xmlns="http://www.w3.org/2000/svg" viewBox="0 0 579.4 110.7"><path d="M378.3 51h17.8l.4-1.8h-17.8l.2-1.8s3-11.1 3.5-13.8c.5-2-.1-13.7-14.8-12.1a13.57 13.57 0 00-12.1 14.9l-.1.3c6.6 0 8.8 2.1 8.1 7.5l-1.2 5.1h-9.9L352 51h10.1l-9.6 41.5c-2.8 11.8 2.8 17.8 12.7 17.8 10.2 0 18-6.4 23.8-12.1l-.6-.6c-3.9 3.9-9.2 8.2-14.8 8.2-5.3 0-7-3.9-5.4-11.1zm61-38.8S441.3 0 424.5 0a13.62 13.62 0 00-12.1 14.8l-.1.3c7.6 0 9.3 2.8 7.6 10.1l-16.2 70.6c-2 8.8 1.2 14.6 9.5 14.6 5.8 0 12.4-2.9 18.7-6.9l.1-1c-2.6 1.6-6.6 3.7-9.5 3.7-3.1 0-4.1-2.3-3.2-6.7zm69.2 50.9c0-9.1-9.2-15.5-22.2-15.5-20.6 0-39.9 16.2-39.9 37.7 0 13.7 8 25.1 25.7 25.1 15.6 0 25.4-9.2 31.4-16.2l-.7-.6c-5.3 6.3-13.6 13.5-23.7 13.5-10.8 0-15.5-8.2-15.5-19.4a54.91 54.91 0 01.9-9.4c14.8 1.3 44 1.2 44-15.2zM486 48.7c5.4 0 7.4 3.9 7.4 9.6 0 15-14 19.7-28.8 19 3-14 11-28.6 21.4-28.6zM270.9 18.6l-42.5 66.9-16.1-66.9c-2.4-9.9-7.4-15.2-15.9-15a15.62 15.62 0 00-15.3 15.9h.3v.2c14.5 0 16.2 7.7 11.7 23.5l-5.3 17.1C176.2 101.7 171 108 155.5 108l-.3.9h37.1l.1-.9c-15.2 0-15.3-6.4-3.4-47.8l8.2-27.3 18.3 73.4h.7l49.1-76.7L254 92.3c-1.8 10.1-5.3 15.8-16.1 15.8l-.1.9H282l.3-.9c-11 0-12.1-5-10.1-16.5l10.1-55.1c1.9-10.2 4.8-16.8 16.5-16.8l.3-1h-28.2zm52.4 87.8c-3.1 0-4.1-2.3-3.2-6.7l11-43.2s1.2-12.1-14.8-12.1a13.57 13.57 0 00-12.1 14.9l-.1.3c7.6 0 9.3 2.8 7.6 10.1L304.5 96c-2 8.8 1.2 14.6 9.5 14.6 5.9 0 12.4-2.9 18.7-6.9l.2-1c-2.7 1.6-6.7 3.7-9.6 3.7zm246.6-58.3c-8.7 0-16.4 10.1-21.4 20.3l2.6-11.4c.3-7.3-7.6-12.2-14.9-11.4a13.61 13.61 0 00-12.1 15l-.1.3c7.6 0 9.2 2.5 7.4 9.8l-8.9 38.7H539l3.3-14.3 5.3-23c3.5-7.3 8.2-13.7 13.3-15.6 0 .6-.1 1.2-.1 1.8a9.4 9.4 0 009.2 9.6 9.55 9.55 0 009.4-9.7v-.1c0-5.3-3.7-10-9.5-10zM148.5 84.5l.2-.6h-19.1l-.2.6c6.5 0 9.4 4.2 4.6 11.3l-14.1-17.9c7.2-2.4 19.8-5.1 19.8-14 0-6.2-6.1-10-15.3-10-11.5 0-20.1 6.3-20.1 15.4a18 18 0 004.2 11l1.2 1.6c-9.1 3.1-18.6 7.2-18.6 16 0 8.1 8.3 12.1 18.3 12.1a27.6 27.6 0 0017.7-5.9l3.9 4.9h17l.2-.6c-3.8 0-5.3-1.2-8.6-5.4l-5.3-6.6c1.6-2.3.8-.7 2.3-3.8 3-5.6 4.1-8.1 11.9-8.1zm-24-29.9c4.7 0 7.3 2.7 7.3 7.5 0 7.6-6.4 12.5-12.1 15.4l-1.7-2.3c-2.9-3.6-3.9-6.5-3.9-9.5-.1-5.8 3.9-11.1 10.4-11.1zm-11.6 54.2c-8 0-11.5-4.9-11.5-11.6a16.62 16.62 0 018.7-14.8l16.5 21.1a21.24 21.24 0 01-13.7 5.3zM60.8 16.9c-24.1 0-35.2 12.6-35.2 27.2 0 28.5 41.9 22.6 41.9 45.7 0 9.6-7.3 20-24.4 20-20.6 0-23.7-14.9-26-30.5 0 0-14.5-1.4-16.8 11.1-2.4 14.1 11.1 16.5 11.1 16.5a156.32 156.32 0 0031.9 3.8c28.6 0 38.6-13.3 38.6-28.1 0-31-42.7-25.1-42.7-46.9C39.2 26.4 47 18 61.4 18c15.8 0 21.5 10.4 24.1 28.2l.7-.2 5-28.3c-10.2 2.2-18.6-.8-30.4-.8z" fill="#4a4a4a"/></svg>